<?xml version="1.0" encoding="UTF-8" standalone="no"?><!DOCTYPE svg PUBLIC "-//W3C//DTD SVG 1.1//EN" "http://www.w3.org/Graphics/SVG/1.1/DTD/svg11.dtd"><svg width="100%" height="100%" viewBox="0 0 191 64" version="1.1" xmlns="http://www.w3.org/2000/svg" xmlns:xlink="http://www.w3.org/1999/xlink" xml:space="preserve" xmlns:serif="http://www.serif.com/" style="fill-rule:evenodd;clip-rule:evenodd;stroke-linejoin:round;stroke-miterlimit:2;"><rect id="ArtBoard1" x="0" y="-0" width="190.084" height="63.995" style="fill:none;"/><g transform="matrix(1,0,0,1,-575.802,-1563.98)"><g transform="matrix(58.3333,0,0,58.3333,575.34,1611.29)"><path d="M0.438,-0.715l-0.103,0c-0.002,0 -0.004,0.002 -0.005,0.004l-0.255,0.731c-0,0.002 0.001,0.004 0.003,0.004l0.104,-0c0.002,-0 0.004,-0.002 0.005,-0.004l0.254,-0.731c0.001,-0.002 -0.001,-0.004 -0.003,-0.004l0,0Z" style="fill:#64ebc4;fill-rule:nonzero;"/></g><g transform="matrix(58.3333,0,0,58.3333,590.507,1611.29)"><path d="M0.438,-0.715l-0.103,0c-0.002,0 -0.004,0.002 -0.005,0.004l-0.255,0.731c-0,0.002 0.001,0.004 0.003,0.004l0.104,-0c0.002,-0 0.004,-0.002 0.005,-0.004l0.254,-0.731c0.001,-0.002 -0.001,-0.004 -0.003,-0.004l0,0Z" style="fill:#64ebc4;fill-rule:nonzero;"/></g><g transform="matrix(58.3333,0,0,58.3333,615.882,1611.29)"><path d="M0.299,-0.694c-0.001,-0.007 -0.007,-0.013 -0.014,-0.014c-0.011,-0.001 -0.023,-0.002 -0.036,-0.002c-0.012,0 -0.024,0.001 -0.035,0.002c-0.008,0.001 -0.014,0.007 -0.014,0.014c-0.002,0.011 -0.002,0.023 -0.002,0.036c-0,0.012 0,0.024 0.002,0.036c0,0.007 0.006,0.013 0.014,0.014c0.011,0.001 0.023,0.001 0.035,0.001c0.013,0 0.025,-0 0.036,-0.001c0.007,-0.001 0.013,-0.007 0.014,-0.014c0.001,-0.012 0.002,-0.024 0.002,-0.036c-0,-0.013 -0.001,-0.025 -0.002,-0.036Zm-0.087,0.174l-0.172,-0c-0.003,-0 -0.005,0.002 -0.005,0.005l-0,0.067c-0,0.003 0.002,0.005 0.005,0.005l0.128,0c0.04,0 0.04,0.003 0.04,0.051l0,0.402c0,0.068 -0.048,0.116 -0.106,0.116l-0.104,-0c-0.003,-0 -0.005,0.002 -0.005,0.005l0,0.063c0,0.004 0.002,0.006 0.005,0.006l0.127,-0c0.103,-0 0.172,-0.085 0.172,-0.211l0,-0.446c0,-0.057 -0.007,-0.063 -0.085,-0.063Z" style="fill:#64ebc4;fill-rule:nonzero;"/></g><g transform="matrix(58.3333,0,0,58.3333,633.265,1611.29)"><path d="M0.222,-0.235l0.216,0c0.086,0 0.101,-0.012 0.101,-0.057l-0,-0.017c-0,-0.126 -0.07,-0.211 -0.173,-0.211l-0.122,-0c-0.103,-0 -0.173,0.085 -0.173,0.211l0,0.098c0,0.126 0.07,0.211 0.173,0.211l0.122,0c0.087,0 0.15,-0.061 0.168,-0.155c0,-0.004 -0.002,-0.007 -0.006,-0.007l-0.077,0c-0.003,0 -0.005,0.002 -0.005,0.004c-0.013,0.05 -0.054,0.084 -0.103,0.084l-0.077,0c-0.058,0 -0.106,-0.048 -0.106,-0.116l-0,-0.047l0.062,0.002l0,0Zm-0.062,-0.095c-0,-0.068 0.048,-0.116 0.106,-0.116l0.077,-0c0.058,-0 0.107,0.048 0.107,0.116l-0,0.022l-0.29,0l-0,-0.022Z" style="fill:#64ebc4;fill-rule:nonzero;"/></g><g transform="matrix(58.3333,0,0,58.3333,665.407,1611.29)"><path d="M0.344,-0.52l-0.076,0c-0.043,0 -0.078,0.014 -0.09,0.052l-0.002,-0l-0,-0.046c-0,-0.003 -0.003,-0.006 -0.006,-0.006l-0.078,0c-0.003,0 -0.005,0.003 -0.005,0.006l-0,0.509c-0,0.003 0.002,0.005 0.005,0.005l0.078,0c0.003,0 0.006,-0.002 0.006,-0.005l-0,-0.35c-0,-0.064 0.033,-0.091 0.063,-0.091l0.082,0c0.058,0 0.106,0.049 0.106,0.116l0,0.325c0,0.003 0.003,0.005 0.006,0.005l0.078,0c0.003,0 0.005,-0.002 0.005,-0.005l0,-0.304c0,-0.126 -0.069,-0.211 -0.172,-0.211l-0,0Z" style="fill:#64ebc4;fill-rule:nonzero;"/></g><g transform="matrix(58.3333,0,0,58.3333,696.965,1611.29)"><path d="M0.537,-0.005l-0.189,-0.234l-0.025,-0.03l-0,-0.004l0.025,-0.032l0.166,-0.211c0.001,-0.002 -0,-0.004 -0.003,-0.004l-0.085,-0c-0.002,-0 -0.003,0.001 -0.004,0.002l-0.16,0.21l-0.087,-0l0,-0.387c0,-0.003 -0.002,-0.005 -0.005,-0.005l-0.079,0c-0.003,0 -0.005,0.002 -0.005,0.005l0,0.689c0,0.003 0.002,0.006 0.005,0.006l0.079,-0c0.003,-0 0.005,-0.003 0.005,-0.006l0,-0.226l0.079,0l0.182,0.23c0.001,0.001 0.002,0.002 0.004,0.002l0.095,-0c0.002,-0 0.004,-0.003 0.002,-0.005l0,0Z" style="fill:#64ebc4;fill-rule:nonzero;"/></g><g transform="matrix(58.3333,0,0,58.3333,724.615,1611.29)"><path d="M0.222,-0.235l0.216,0c0.086,0 0.101,-0.012 0.101,-0.057l-0,-0.017c-0,-0.126 -0.07,-0.211 -0.173,-0.211l-0.122,-0c-0.103,-0 -0.173,0.085 -0.173,0.211l0,0.098c0,0.126 0.07,0.211 0.173,0.211l0.122,0c0.087,0 0.15,-0.061 0.168,-0.155c0,-0.004 -0.002,-0.007 -0.006,-0.007l-0.077,0c-0.003,0 -0.005,0.002 -0.005,0.004c-0.013,0.05 -0.054,0.084 -0.103,0.084l-0.077,0c-0.058,0 -0.106,-0.048 -0.106,-0.116l-0,-0.047l0.062,0.002l0,0Zm-0.062,-0.095c-0,-0.068 0.048,-0.116 0.106,-0.116l0.077,-0c0.058,-0 0.107,0.048 0.107,0.116l-0,0.022l-0.29,0l-0,-0.022Z" style="fill:#64ebc4;fill-rule:nonzero;"/></g></g></svg>